<svg width="40" height="41" viewBox="0 0 40 41" fill="none" xmlns="http://www.w3.org/2000/svg">
<path d="M28.8285 0.685547H10.7C4.79993 0.685547 0 5.48547 0 11.3856V29.5144C0 35.4141 4.79993 40.2141 10.7 40.2141H28.8288C34.7286 40.2141 39.5285 35.4141 39.5285 29.5144V11.3856C39.5285 5.48547 34.7286 0.685547 28.8285 0.685547V0.685547ZM37.2112 29.5144C37.2112 34.1364 33.4508 37.8967 28.8285 37.8967H10.7C6.07772 37.8967 2.31733 34.1364 2.31733 29.5144V11.3856C2.31733 6.76326 6.07772 3.00288 10.7 3.00288H28.8288C33.4508 3.00288 37.2112 6.76326 37.2112 11.3856V29.5144Z" fill="#C4C4C4"/>
<path d="M19.7623 9.6416C13.8025 9.6416 8.95398 14.4901 8.95398 20.4499C8.95398 26.4097 13.8025 31.2582 19.7623 31.2582C25.7221 31.2582 30.5705 26.4097 30.5705 20.4499C30.5705 14.4901 25.7221 9.6416 19.7623 9.6416ZM19.7623 28.9408C15.0806 28.9408 11.2713 25.1319 11.2713 20.4499C11.2713 15.7682 15.0806 11.9589 19.7623 11.9589C24.4443 11.9589 28.2532 15.7682 28.2532 20.4499C28.2532 25.1319 24.4443 28.9408 19.7623 28.9408Z" fill="#C4C4C4"/>
<path d="M30.8304 5.80298C29.0692 5.80298 27.6367 7.23578 27.6367 8.9967C27.6367 10.7579 29.0692 12.1907 30.8304 12.1907C32.5917 12.1907 34.0245 10.7579 34.0245 8.9967C34.0245 7.23548 32.5917 5.80298 30.8304 5.80298ZM30.8304 9.87309C30.3473 9.87309 29.954 9.47983 29.954 8.9967C29.954 8.51327 30.3473 8.12031 30.8304 8.12031C31.3139 8.12031 31.7071 8.51327 31.7071 8.9967C31.7071 9.47983 31.3139 9.87309 30.8304 9.87309Z" fill="#C4C4C4"/>
</svg>
